:SAMPLES-PER-SECOND 30
:FULLY-SPECIFIED
:DEGREES
278
root  -3.79131 40.7272 -2.00417 5.88171 -69.2836 -0.75531
RightUpLeg  -3.53163 -1.70519 1.39138
RightLeg  -1.69503 -42.4723 3.50056
RightFoot  -0.760297 -0.00895892 0.0392057
RightToes  -3.11842e-008 1.75238e-005 3.56266e-009
Spine  9.02725 1.16968 -5.0795
Spine1  3.28876 0.271045 3.42684
HEad  -18.7361 -3.86162 1.91695
LeftShoulder1  2.78057 -6.02376 -22.9189
LeftArm  -29.1333 -28.1369 -50.0998
LeftForeArm  107.172 -78.6015 -114.291
LeftHand  -0.301023 -4.27535 3.89755
RightShoulder  3.59287 7.75206 25.8692
RightArm  -21.7038 17.9409 38.7433
RightForeArm  163.91 60.3435 162.018
RightHand  -0.611546 9.89949 -5.03043
LeftUpLeg  -10.4823 -0.361793 4.99719
LeftLeg  2.05602 -4.63872 0.996576
LeftFoot  3.44914 0.719542 -5.6996
LeftToes  4.78904e-008 1.4679e-008 1.35657e-009
279
root  -3.4256 40.7315 -2.03374 6.70978 -70.1039 -1.44086
RightUpLeg  -4.31114 -1.7327 1.31859
RightLeg  -1.77405 -41.6093 3.84291
RightFoot  -0.306947 0.0134525 -0.160714
RightToes  -3.11842e-008 1.75238e-005 3.56266e-009
Spine  9.78684 1.5715 -4.0865
Spine1  6.29301 0.994195 1.82157
HEad  -21.5436 -3.46428 2.70955
LeftShoulder1  2.91883 -6.51557 -22.8625
LeftArm  -24.6465 -25.8222 -52.8719
LeftForeArm  112.265 -78.2386 -118.421
LeftHand  -0.295398 -4.52933 3.74676
RightShoulder  3.63682 7.98698 25.5866
RightArm  -25.7044 24.0548 39.9018
RightForeArm  162.295 63.1244 159.762
RightHand  -0.714532 9.53524 -5.93954
LeftUpLeg  -10.9439 -0.190933 5.20281
LeftLeg  1.68155 -3.88681 0.938601
LeftFoot  4.14277 0.768193 -5.83408
LeftToes  4.78904e-008 1.4679e-008 1.35657e-009
280
root  -3.10116 40.7364 -2.06177 7.78625 -70.601 -2.14807
RightUpLeg  -5.1851 -1.57747 1.35765
RightLeg  -2.03716 -41.1665 4.15421
RightFoot  0.290603 0.0450964 -0.422207
RightToes  -3.11842e-008 1.75238e-005 3.56266e-009
Spine  11.1704 1.74902 -3.79631
Spine1  7.74415 1.29992 1.09239
HEad  -22.8236 -3.26007 3.14866
LeftShoulder1  3.05482 -6.6951 -23.716
LeftArm  -19.0091 -21.7922 -54.49
LeftForeArm  120.16 -77.1144 -126.736
LeftHand  -0.3181 -4.87592 3.88795
RightShoulder  3.62239 8.18854 24.8816
RightArm  -28.9091 28.2083 41.0464
RightForeArm  160.176 66.2237 156.681
RightHand  -0.755782 9.08605 -6.43096
LeftUpLeg  -11.588 -0.0442019 5.39753
LeftLeg  1.19929 -3.49205 0.852743
LeftFoot  4.92491 0.781826 -5.6794
LeftToes  4.78904e-008 1.4679e-008 1.35657e-009
281
root  -2.82799 40.7256 -2.08547 8.93915 -70.3709 -2.57397
RightUpLeg  -6.12169 -1.46176 1.35324
RightLeg  -2.89112 -41.4897 4.86663
RightFoot  0.821776 0.0832671 -0.729509
RightToes  -3.11842e-008 1.75238e-005 3.56266e-009
Spine  11.8881 1.84318 -3.877
Spine1  9.10758 1.41047 0.825364
HEad  -23.5783 -3.40772 3.98915
LeftShoulder1  3.35835 -7.31492 -24.8779
LeftArm  -13.3498 -19.0649 -54.9876
LeftForeArm  126.736 -75.8604 -133.324
LeftHand  -0.329896 -5.61778 3.81761
RightShoulder  3.55794 8.20121 24.2681
RightArm  -32.1934 29.6393 41.7795
RightForeArm  156.714 69.221 152.666
RightHand  -0.701513 9.25107 -5.92824
LeftUpLeg  -12.6717 -0.103581 5.47835
LeftLeg  0.726755 -3.50595 0.817228
LeftFoot  5.67452 0.797875 -5.56064
LeftToes  4.78904e-008 1.4679e-008 1.35657e-009
282
root  -2.61822 40.7143 -2.13522 9.79272 -69.8106 -2.49786
RightUpLeg  -7.10206 -1.35142 1.28357
RightLeg  -3.85801 -42.1072 5.60276
RightFoot  1.22402 0.104332 -0.871287
RightToes  -3.11842e-008 1.75238e-005 3.56266e-009
Spine  11.9518 1.89727 -4.56404
Spine1  10.6572 1.34116 0.985008
HEad  -23.9537 -3.72332 5.42417
LeftShoulder1  3.47494 -7.56732 -25.2338
LeftArm  -9.31281 -18.6554 -56.0056
LeftForeArm  135.433 -74.6241 -138.91
LeftHand  -0.18561 -6.68575 2.1208
RightShoulder  3.59827 8.2247 24.5664
RightArm  -34.5342 29.3979 41.6143
RightForeArm  150.805 72.4168 146.668
RightHand  -0.564876 8.51604 -5.08796
LeftUpLeg  -13.8099 -0.232507 5.49243
LeftLeg  0.0262012 -3.74179 0.752922
LeftFoot  6.42868 0.876952 -5.8576
LeftToes  4.78904e-008 1.4679e-008 1.35657e-009
283
root  -2.43631 40.7042 -2.19159 10.801 -69.1108 -2.81714
RightUpLeg  -7.80097 -1.14207 1.38291
RightLeg  -4.86429 -42.9215 6.35412
RightFoot  1.6477 0.127702 -1.02263
RightToes  -3.11842e-008 1.75238e-005 3.56266e-009
Spine  12.6059 1.94267 -4.93563
Spine1  11.2585 1.26027 1.14902
HEad  -24.2276 -4.29937 6.22543
LeftShoulder1  3.56806 -7.87757 -25.1964
LeftArm  -7.98428 -20.2038 -56.5588
LeftForeArm  144.219 -73.0961 -144.225
LeftHand  -0.141104 -7.41738 1.64632
RightShoulder  3.62899 8.26368 24.7334
RightArm  -35.4379 26.9682 41.8571
RightForeArm  141.91 75.1431 138.664
RightHand  -0.513685 8.48913 -4.66965
LeftUpLeg  -14.7174 -0.159507 5.66278
LeftLeg  -0.616972 -4.30262 0.650415
LeftFoot  7.10246 0.96083 -6.18101
LeftToes  4.78904e-008 1.4679e-008 1.35657e-009
284
root  -2.29778 40.7015 -2.22818 11.489 -68.708 -3.13562
RightUpLeg  -8.19226 -0.930525 1.47791
RightLeg  -5.56485 -43.3753 6.83578
RightFoot  2.00751 0.151116 -1.17362
RightToes  -3.11842e-008 1.75238e-005 3.56266e-009
Spine  13.3449 1.92179 -5.18847
Spine1  11.6034 1.19907 1.03715
HEad  -24.2315 -4.73721 6.53329
LeftShoulder1  3.55705 -7.99237 -24.7671
LeftArm  -10.8186 -23.8155 -57.2669
LeftForeArm  148.714 -71.8211 -147.485
LeftHand  -0.0622302 -7.96584 0.908546
RightShoulder  3.71804 8.27394 25.4985
RightArm  -34.0593 24.0065 41.5196
RightForeArm  134.897 77.2786 129.841
RightHand  -0.387923 8.77346 -3.55864
LeftUpLeg  -15.196 -0.139351 5.79078
LeftLeg  -1.15164 -4.56833 0.668329
LeftFoot  7.56677 1.04765 -6.56507
LeftToes  4.78904e-008 1.4679e-008 1.35657e-009
285
root  -2.17084 40.6938 -2.25278 12.2034 -68.8784 -3.56445
RightUpLeg  -8.8324 -0.725794 1.59192
RightLeg  -5.40781 -43.4313 6.7347
RightFoot  2.17556 0.182902 -1.41743
RightToes  -3.11842e-008 1.75238e-005 3.56266e-009
Spine  13.8267 2.01955 -5.86124
Spine1  12.1401 0.998011 1.75668
HEad  -24.5018 -5.15187 6.39247
LeftShoulder1  3.52439 -7.77941 -25.075
LeftArm  -16.9707 -28.7565 -57.4125
LeftForeArm  148.089 -71.043 -148.752
LeftHand  -0.168459 -7.50651 1.88503
RightShoulder  3.75274 8.37419 25.5249
RightArm  -29.001 21.4476 41.1913
RightForeArm  134.168 77.6033 128.144
RightHand  -0.429613 8.30409 -4.01031
LeftUpLeg  -15.6209 -0.112821 5.93358
LeftLeg  -1.34852 -4.42659 0.72265
LeftFoot  7.88554 1.07992 -6.65597
LeftToes  4.78904e-008 1.4679e-008 1.35657e-009
286
root  -2.07367 40.69 -2.27346 13.106 -69.6534 -4.04901
RightUpLeg  -9.67242 -0.478064 1.68828
RightLeg  -5.00152 -42.9014 6.43889
RightFoot  2.36014 0.204937 -1.57067
RightToes  -3.11842e-008 1.75238e-005 3.56266e-009
Spine  14.3664 2.03403 -6.14867
Spine1  11.8082 1.0281 1.50549
HEad  -24.2736 -5.38152 6.24233
LeftShoulder1  3.38045 -7.42536 -24.7557
LeftArm  -25.3245 -32.3697 -56.2491
LeftForeArm  143.812 -70.5749 -148.919
LeftHand  -0.139848 -6.21165 1.72949
RightShoulder  3.91533 8.71935 25.9761
RightArm  -22.7646 19.7117 40.8293
RightForeArm  138.742 76.3458 134.248
RightHand  -0.39846 8.1011 -3.8037
LeftUpLeg  -16.0142 0.0924774 6.14925
LeftLeg  -1.5445 -3.81549 0.632812
LeftFoot  8.1498 1.07405 -6.5388
LeftToes  4.78904e-008 1.4679e-008 1.35657e-009
287
root  -1.96728 40.6882 -2.27174 14.1539 -70.825 -4.7431
RightUpLeg  -10.4942 -0.162092 1.79422
RightLeg  -4.50616 -42.0003 6.02632
RightFoot  2.61613 0.225945 -1.69917
RightToes  -3.11842e-008 1.75238e-005 3.56266e-009
Spine  14.8975 2.06803 -6.2124
Spine1  11.3109 1.21568 0.884798
HEad  -24.178 -5.42779 6.06093
LeftShoulder1  3.25229 -7.30352 -23.8753
LeftArm  -35.3613 -34.4384 -54.7411
LeftForeArm  138.877 -70.8291 -147.778
LeftHand  -0.0748902 -5.55901 1.11727
RightShoulder  4.18051 9.21565 26.8466
RightArm  -18.6125 20.2966 40.5009
RightForeArm  148.357 75.1592 139.903
RightHand  -0.340809 8.9065 -3.14626
LeftUpLeg  -16.3626 0.377549 6.41054
LeftLeg  -1.54114 -2.79688 0.492969
LeftFoot  8.28957 1.06205 -6.4276
LeftToes  4.78904e-008 1.4679e-008 1.35657e-009
288
root  -1.87463 40.6865 -2.25016 14.9268 -72.2437 -5.28741
RightUpLeg  -11.1001 0.05261 1.80933
RightLeg  -4.13343 -40.8209 5.67982
RightFoot  2.91655 0.248606 -1.82657
RightToes  -3.11842e-008 1.75238e-005 3.56266e-009
Spine  15.2855 2.3445 -6.29819
Spine1  11.0069 1.60906 0.453143
HEad  -24.3325 -5.18046 6.29301
LeftShoulder1  3.17312 -7.11214 -23.6612
LeftArm  -44.2417 -35.6132 -52.883
LeftForeArm  134.855 -71.87 -145.253
LeftHand  -0.0931185 -5.10156 1.30558
RightShoulder  4.30385 9.43179 27.2654
RightArm  -18.113 22.3418 41.2462
RightForeArm  153.131 73.6851 144.447
RightHand  -0.339712 8.96187 -3.13027
LeftUpLeg  -16.506 0.494303 6.53213
LeftLeg  -1.47554 -1.57798 0.449375
LeftFoot  8.39683 0.998334 -6.03013
LeftToes  4.78904e-008 1.4679e-008 1.35657e-009
289
root  -1.80226 40.6899 -2.19791 15.923 -73.2262 -5.9823
RightUpLeg  -11.4207 0.225117 1.80732
RightLeg  -4.60638 -39.9504 5.95324
RightFoot  3.43263 0.291559 -2.06641
RightToes  -3.11842e-008 1.75238e-005 3.56266e-009
Spine  15.2288 2.59177 -6.25714
Spine1  11.0179 1.85169 0.589993
HEad  -24.0454 -5.06573 6.36696
LeftShoulder1  3.32181 -7.28741 -24.6003
LeftArm  -50.6203 -34.6632 -50.6606
LeftForeArm  134.04 -73.0557 -142.614
LeftHand  -0.21524 -5.88433 2.54892
RightShoulder  4.27889 9.50201 26.8778
RightArm  -21.3156 24.6321 43.4521
RightForeArm  150.166 72.9729 145.462
RightHand  -0.413327 9.25428 -3.6639
LeftUpLeg  -16.7225 0.618439 6.64231
LeftLeg  -1.52967 -0.617307 0.380385
LeftFoot  8.50023 0.957676 -5.76974
LeftToes  4.78904e-008 1.4679e-008 1.35657e-009
290
root  -1.7794 40.6977 -2.13431 16.1494 -73.6099 -6.05164
RightUpLeg  -11.3868 0.259557 1.70119
RightLeg  -5.25939 -39.6454 6.29503
RightFoot  3.82135 0.312383 -2.15013
RightToes  -3.11842e-008 1.75238e-005 3.56266e-009
Spine  15.0914 2.69101 -5.84698
Spine1  10.8542 2.12928 0.176623
HEad  -23.6055 -5.36005 7.43926
LeftShoulder1  3.39106 -7.38451 -24.9799
LeftArm  -51.866 -31.8994 -50.2907
LeftForeArm  127.25 -73.6765 -139.96
LeftHand  -0.166732 -4.7994 2.20091
RightShoulder  4.29338 9.40595 27.2483
RightArm  -26.0446 26.4148 44.9483
RightForeArm  140.041 73.1449 143.401
RightHand  -0.543374 8.88593 -4.7943
LeftUpLeg  -16.7489 0.584522 6.57491
LeftLeg  -1.67841 -0.151296 0.33111
LeftFoot  8.57451 0.929713 -5.59129
LeftToes  4.78904e-008 1.4679e-008 1.35657e-009
291
root  -1.789 40.7064 -2.05665 15.8736 -73.3168 -5.72437
RightUpLeg  -11.1655 0.0916244 1.50672
RightLeg  -5.71955 -39.6896 6.59497
RightFoot  3.94593 0.288584 -1.94827
RightToes  -3.11842e-008 1.75238e-005 3.56266e-009
Spine  14.7928 2.63701 -5.24434
Spine1  10.4381 2.26555 -0.255611
HEad  -23.1716 -5.9271 8.6403
LeftShoulder1  3.36687 -7.39438 -24.7171
LeftArm  -47.5789 -27.0826 -51.7389
LeftForeArm  120.443 -74.1964 -137.321
LeftHand  -0.227885 -4.45247 2.96895
RightShoulder  4.31326 9.39162 27.4452
RightArm  -30.5406 26.7564 45.519
RightForeArm  130.068 74.6143 137.799
RightHand  -0.600561 8.75523 -5.29852
LeftUpLeg  -16.7747 0.49317 6.42861
LeftLeg  -1.73628 -0.318998 0.254669
LeftFoot  8.55158 0.941857 -5.66623
LeftToes  4.78904e-008 1.4679e-008 1.35657e-009
292
root  -1.85093 40.7131 -1.97235 15.2242 -72.6732 -5.30786
RightUpLeg  -10.7384 -0.205656 1.32982
RightLeg  -5.66146 -40.0592 6.6553
RightFoot  3.72968 0.271413 -1.85647
RightToes  -3.11842e-008 1.75238e-005 3.56266e-009
Spine  14.112 2.70222 -5.34179
Spine1  10.6204 2.10943 0.6704
HEad  -22.6216 -6.19722 9.23907
LeftShoulder1  3.49502 -7.49038 -25.6532
LeftArm  -39.694 -22.4433 -52.972
LeftForeArm  121.064 -75.1857 -134.426
LeftHand  -0.344193 -4.32267 4.39875
RightShoulder  4.13282 9.02458 26.9728
RightArm  -32.3384 25.822 45.4477
RightForeArm  119.401 76.863 127.683
RightHand  -0.608801 9.057 -5.26597
LeftUpLeg  -16.6285 0.345407 6.20408
LeftLeg  -1.46165 -0.886025 0.268068
LeftFoot  8.29545 0.916261 -5.58467
LeftToes  4.78904e-008 1.4679e-008 1.35657e-009
